<svg xmlns="http://www.w3.org/2000/svg" xmlns:xlink="http://www.w3.org/1999/xlink" width="1500" height="500" viewBox="0 0 396.875 132.292"><defs><linearGradient id="a"><stop offset="0" stop-color="#ff1f5a"/><stop offset="1" stop-color="#ff6d5a"/></linearGradient><linearGradient xlink:href="#a" id="d" x1="18.971" y1="272.468" x2="82.005" y2="199.512" gradientUnits="userSpaceOnUse"/><linearGradient xlink:href="#a" id="c" gradientUnits="userSpaceOnUse" gradientTransform="translate(0 2.646)" x1="91.339" y1="241.135" x2="253.271" y2="241.135"/><linearGradient xlink:href="#a" id="f" gradientUnits="userSpaceOnUse" gradientTransform="translate(0 2.646)" x1="91.339" y1="241.135" x2="253.271" y2="241.135"/><linearGradient xlink:href="#a" id="g" gradientUnits="userSpaceOnUse" gradientTransform="translate(0 2.646)" x1="91.339" y1="241.135" x2="253.271" y2="241.135"/><linearGradient xlink:href="#a" id="h" gradientUnits="userSpaceOnUse" gradientTransform="translate(0 2.646)" x1="91.339" y1="241.135" x2="253.271" y2="241.135"/><linearGradient xlink:href="#a" id="i" gradientUnits="userSpaceOnUse" gradientTransform="translate(0 2.646)" x1="91.339" y1="241.135" x2="253.271" y2="241.135"/><linearGradient xlink:href="#a" id="j" gradientUnits="userSpaceOnUse" gradientTransform="translate(0 2.646)" x1="91.339" y1="241.135" x2="253.271" y2="241.135"/><linearGradient xlink:href="#a" id="k" gradientUnits="userSpaceOnUse" gradientTransform="translate(0 2.646)" x1="91.339" y1="241.135" x2="253.271" y2="241.135"/><linearGradient xlink:href="#a" id="l" gradientUnits="userSpaceOnUse" gradientTransform="translate(0 2.646)" x1="91.339" y1="241.135" x2="253.271" y2="241.135"/><linearGradient xlink:href="#a" id="m" gradientUnits="userSpaceOnUse" gradientTransform="translate(0 2.646)" x1="91.339" y1="241.135" x2="253.271" y2="241.135"/><linearGradient xlink:href="#a" id="n" gradientUnits="userSpaceOnUse" gradientTransform="translate(0 2.646)" x1="91.339" y1="241.135" x2="253.271" y2="241.135"/><linearGradient xlink:href="#a" id="e" gradientUnits="userSpaceOnUse" gradientTransform="translate(0 2.646)" x1="91.339" y1="241.135" x2="253.271" y2="241.135"/><linearGradient xlink:href="#a" id="b" gradientUnits="userSpaceOnUse" gradientTransform="translate(0 2.646)" x1="91.339" y1="241.135" x2="253.271" y2="241.135"/></defs><g transform="translate(4.407 -164.708)" fill="url(#b)" aria-label="LINE STORE" font-weight="400" font-size="15.87" font-family="sans-serif" letter-spacing="0" word-spacing="0" stroke-width=".397"><g transform="translate(-3.707 .92)" fill="url(#c)"><path d="M34.05 199.868c2.85-21.977 32.226-21.977 35.327.04" fill="none" stroke="#e6e6e6" stroke-width="2" stroke-linecap="round"/><path d="M21.422 199.512l-2.451 72.956h65.485l-2.451-72.956z" fill="url(#d)"/><path d="M18.917 274.056l-.19 3.423H84.7l-.19-3.423z" fill="#fff"/><path d="M34.05 219.562c2.85 21.977 32.226 21.977 35.327-.04" fill="none" stroke="#fff" stroke-width="2" stroke-linecap="round"/><path d="M65.958 219.616c.554-4.278 6.272-4.278 6.876.008m-42.263-.008c.555-4.278 6.273-4.278 6.877.008" fill="none" stroke="#fff" stroke-width=".886" stroke-linecap="round"/></g><g transform="translate(-62.487 -188.355) scale(1.71962)" fill="url(#e)" font-weight="700" font-size="24.697" font-family="Open Sans" letter-spacing="2.822"><path d="M91.339 252.614v-17.63h3.738v14.543h7.151v3.087z" style="-inkscape-font-specification:'Open Sans Bold'" fill="url(#f)"/><path d="M108.101 252.614v-17.63h3.738v17.63z" style="-inkscape-font-specification:'Open Sans Bold'" fill="url(#g)"/><path d="M134.764 252.614h-4.751l-7.67-13.338h-.108q.229 3.534.229 5.041v8.297h-3.34v-17.63h4.714l7.658 13.204h.085q-.181-3.437-.181-4.86v-8.345h3.364z" style="-inkscape-font-specification:'Open Sans Bold'" fill="url(#h)"/><path d="M152.166 252.614h-10.154v-17.63h10.154v3.062h-6.416v3.871h5.97v3.063h-5.97v4.547h6.416z" style="-inkscape-font-specification:'Open Sans Bold'" fill="url(#i)"/><path d="M178.322 247.718q0 2.387-1.724 3.762-1.712 1.375-4.776 1.375-2.821 0-4.992-1.061v-3.473q1.785.796 3.015 1.121 1.242.326 2.267.326 1.23 0 1.881-.47.663-.47.663-1.4 0-.518-.289-.916-.29-.41-.856-.784-.555-.374-2.28-1.194-1.615-.76-2.423-1.459-.808-.7-1.29-1.628-.483-.928-.483-2.17 0-2.34 1.58-3.679 1.592-1.338 4.39-1.338 1.374 0 2.616.325 1.254.326 2.617.917l-1.206 2.906q-1.41-.579-2.34-.808-.916-.229-1.808-.229-1.062 0-1.628.495-.567.494-.567 1.29 0 .494.229.868.23.362.724.712.506.337 2.375 1.23 2.472 1.182 3.389 2.375.916 1.182.916 2.907z" style="-inkscape-font-specification:'Open Sans Bold'" fill="url(#j)"/><path d="M191.141 252.614h-3.738v-14.52h-4.787v-3.11h13.313v3.11h-4.788z" style="-inkscape-font-specification:'Open Sans Bold'" fill="url(#k)"/><path d="M217.491 243.774q0 4.378-2.17 6.73-2.171 2.351-6.223 2.351t-6.223-2.352q-2.17-2.351-2.17-6.753 0-4.401 2.17-6.717 2.183-2.327 6.247-2.327t6.21 2.34q2.16 2.339 2.16 6.728zm-12.867 0q0 2.955 1.121 4.45 1.122 1.496 3.353 1.496 4.474 0 4.474-5.946 0-5.957-4.45-5.957-2.231 0-3.365 1.507-1.133 1.496-1.133 4.45z" style="-inkscape-font-specification:'Open Sans Bold'" fill="url(#l)"/><path d="M227.73 242.81h1.205q1.773 0 2.617-.591.844-.591.844-1.857 0-1.255-.868-1.785-.856-.53-2.665-.53h-1.134zm0 3.039v6.765h-3.739v-17.63h5.137q3.594 0 5.318 1.314 1.725 1.302 1.725 3.967 0 1.556-.856 2.774-.856 1.206-2.424 1.893 3.98 5.945 5.185 7.682h-4.148l-4.209-6.765z" style="-inkscape-font-specification:'Open Sans Bold'" fill="url(#m)"/><path d="M253.271 252.614h-10.154v-17.63h10.154v3.062h-6.416v3.871h5.97v3.063h-5.97v4.547h6.416z" style="-inkscape-font-specification:'Open Sans Bold'" fill="url(#n)"/></g></g></svg>